<svg width="282" height="151" viewBox="0 0 282 151" fill="none" xmlns="http://www.w3.org/2000/svg">
<path d="M23.8281 118.781C17.6107 118.781 12.5977 116.844 8.78906 112.971C5.01302 109.097 3.125 103.677 3.125 96.7109V57.0625C3.125 48.7292 4.76888 42.349 8.05664 37.9219C11.377 33.4948 16.7643 31.2812 24.2188 31.2812C28.2878 31.2812 31.901 32.0299 35.0586 33.5273C38.2487 35.0247 40.7552 37.2708 42.5781 40.2656C44.401 43.2279 45.3125 46.9714 45.3125 51.4961V66.3398H28.2227V53.6445C28.2227 51.0729 27.8971 49.3477 27.2461 48.4688C26.5951 47.5573 25.5859 47.1016 24.2188 47.1016C22.6237 47.1016 21.5495 47.6875 20.9961 48.8594C20.4427 49.9987 20.166 51.5286 20.166 53.4492V96.4668C20.166 98.8431 20.5078 100.52 21.1914 101.496C21.9076 102.473 22.9167 102.961 24.2188 102.961C25.6836 102.961 26.709 102.359 27.2949 101.154C27.9134 99.9499 28.2227 98.3874 28.2227 96.4668V80.9883H45.5078V97.248C45.5078 104.8 43.6035 110.285 39.7949 113.703C35.9863 117.089 30.6641 118.781 23.8281 118.781ZM50.4883 118V32.0625H67.0898V118H50.4883ZM73.9258 118V32.0625H91.6016L99.5117 73.2246V32.0625H116.113V118H99.3164L90.7227 75.0312V118H73.9258ZM123.73 118V32.0625H158.105V48.6641H141.211V65.4121H157.422V81.5742H141.211V101.252H159.229V118H123.73ZM213.574 118V32.0625H230.176V118H213.574ZM234.521 118L243.75 72.4434L236.426 32.0137H253.223L257.666 61.5547L261.621 32.0137H278.467L271.143 72.4434L280.322 118H262.939L257.52 84.4062L251.953 118H234.521Z" fill="#FFBA4C"/>
<path d="M186.963 118.781C181.006 118.781 176.335 117.772 172.949 115.754C169.596 113.703 167.22 110.627 165.82 106.525C164.453 102.424 163.77 97.3132 163.77 91.1934V67.9512C163.77 61.9941 164.014 56.737 164.502 52.1797C165.023 47.6224 166.081 43.7975 167.676 40.7051C169.271 37.6126 171.647 35.2689 174.805 33.6738C177.962 32.0788 182.178 31.2812 187.451 31.2812C191.064 31.2812 194.434 31.916 197.559 33.1855C200.684 34.4225 203.206 36.2943 205.127 38.8008C207.048 41.2747 208.008 44.3835 208.008 48.127V57.4043H191.455V55.6465C191.455 54.2142 191.374 52.7819 191.211 51.3496C191.081 49.9173 190.723 48.7292 190.137 47.7852C189.551 46.8411 188.558 46.3691 187.158 46.3691C185.238 46.3691 183.903 46.9062 183.154 47.9805C182.406 49.0221 182.031 50.5358 182.031 52.5215V69.7578C182.845 68.2279 184.066 67.0072 185.693 66.0957C187.321 65.1517 189.307 64.6797 191.65 64.6797C196.403 64.6797 200.049 65.64 202.588 67.5605C205.16 69.4486 206.934 72.2806 207.91 76.0566C208.887 79.8327 209.375 84.5527 209.375 90.2168C209.375 95.946 208.675 100.959 207.275 105.256C205.876 109.52 203.532 112.84 200.244 115.217C196.989 117.593 192.562 118.781 186.963 118.781ZM186.328 102.961C188.346 102.961 189.551 102.115 189.941 100.422C190.332 98.6966 190.527 96.4993 190.527 93.8301V86.8965C190.527 82.209 189.209 79.8652 186.572 79.8652C183.545 79.8652 182.031 81.8997 182.031 85.9688V96.6133C182.031 100.845 183.464 102.961 186.328 102.961Z" fill="white"/>
<mask id="path-2-outside-1_371_5" maskUnits="userSpaceOnUse" x="163" y="30" width="49" height="90" fill="black">
<rect fill="white" x="163" y="30" width="49" height="90"/>
<path d="M187.83 118.781C181.873 118.781 177.202 117.772 173.816 115.754C170.464 113.703 168.087 110.627 166.688 106.525C165.32 102.424 164.637 97.3132 164.637 91.1934V67.9512C164.637 61.9941 164.881 56.737 165.369 52.1797C165.89 47.6224 166.948 43.7975 168.543 40.7051C170.138 37.6126 172.514 35.2689 175.672 33.6738C178.829 32.0788 183.045 31.2812 188.318 31.2812C191.932 31.2812 195.301 31.916 198.426 33.1855C201.551 34.4225 204.074 36.2943 205.994 38.8008C207.915 41.2747 208.875 44.3835 208.875 48.127V57.4043H192.322V55.6465C192.322 54.2142 192.241 52.7819 192.078 51.3496C191.948 49.9173 191.59 48.7292 191.004 47.7852C190.418 46.8411 189.425 46.3691 188.025 46.3691C186.105 46.3691 184.77 46.9062 184.021 47.9805C183.273 49.0221 182.898 50.5358 182.898 52.5215V69.7578C183.712 68.2279 184.933 67.0072 186.561 66.0957C188.188 65.1517 190.174 64.6797 192.518 64.6797C197.27 64.6797 200.916 65.64 203.455 67.5605C206.027 69.4486 207.801 72.2806 208.777 76.0566C209.754 79.8327 210.242 84.5527 210.242 90.2168C210.242 95.946 209.542 100.959 208.143 105.256C206.743 109.52 204.399 112.84 201.111 115.217C197.856 117.593 193.429 118.781 187.83 118.781ZM187.195 102.961C189.214 102.961 190.418 102.115 190.809 100.422C191.199 98.6966 191.395 96.4993 191.395 93.8301V86.8965C191.395 82.209 190.076 79.8652 187.439 79.8652C184.412 79.8652 182.898 81.8997 182.898 85.9688V96.6133C182.898 100.845 184.331 102.961 187.195 102.961Z"/>
</mask>
<path d="M187.83 118.781C181.873 118.781 177.202 117.772 173.816 115.754C170.464 113.703 168.087 110.627 166.688 106.525C165.32 102.424 164.637 97.3132 164.637 91.1934V67.9512C164.637 61.9941 164.881 56.737 165.369 52.1797C165.89 47.6224 166.948 43.7975 168.543 40.7051C170.138 37.6126 172.514 35.2689 175.672 33.6738C178.829 32.0788 183.045 31.2812 188.318 31.2812C191.932 31.2812 195.301 31.916 198.426 33.1855C201.551 34.4225 204.074 36.2943 205.994 38.8008C207.915 41.2747 208.875 44.3835 208.875 48.127V57.4043H192.322V55.6465C192.322 54.2142 192.241 52.7819 192.078 51.3496C191.948 49.9173 191.59 48.7292 191.004 47.7852C190.418 46.8411 189.425 46.3691 188.025 46.3691C186.105 46.3691 184.77 46.9062 184.021 47.9805C183.273 49.0221 182.898 50.5358 182.898 52.5215V69.7578C183.712 68.2279 184.933 67.0072 186.561 66.0957C188.188 65.1517 190.174 64.6797 192.518 64.6797C197.27 64.6797 200.916 65.64 203.455 67.5605C206.027 69.4486 207.801 72.2806 208.777 76.0566C209.754 79.8327 210.242 84.5527 210.242 90.2168C210.242 95.946 209.542 100.959 208.143 105.256C206.743 109.52 204.399 112.84 201.111 115.217C197.856 117.593 193.429 118.781 187.83 118.781ZM187.195 102.961C189.214 102.961 190.418 102.115 190.809 100.422C191.199 98.6966 191.395 96.4993 191.395 93.8301V86.8965C191.395 82.209 190.076 79.8652 187.439 79.8652C184.412 79.8652 182.898 81.8997 182.898 85.9688V96.6133C182.898 100.845 184.331 102.961 187.195 102.961Z" fill="white"/>
<path d="M173.816 115.754L173.295 116.607L173.304 116.613L173.816 115.754ZM166.688 106.525L165.739 106.842L165.741 106.848L166.688 106.525ZM165.369 52.1797L164.376 52.0661L164.375 52.0732L165.369 52.1797ZM175.672 33.6738L175.221 32.7812L175.672 33.6738ZM198.426 33.1855L198.049 34.1121L198.058 34.1154L198.426 33.1855ZM205.994 38.8008L205.2 39.409L205.204 39.414L205.994 38.8008ZM208.875 57.4043V58.4043H209.875V57.4043H208.875ZM192.322 57.4043H191.322V58.4043H192.322V57.4043ZM192.078 51.3496L191.082 51.4401L191.083 51.4513L191.085 51.4625L192.078 51.3496ZM184.021 47.9805L184.833 48.5641L184.838 48.5582L184.842 48.5523L184.021 47.9805ZM182.898 69.7578H181.898L183.781 70.2274L182.898 69.7578ZM186.561 66.0957L187.049 66.9682L187.056 66.9645L187.062 66.9607L186.561 66.0957ZM203.455 67.5605L202.852 68.3581L202.858 68.3624L202.863 68.3666L203.455 67.5605ZM208.143 105.256L209.093 105.568L209.093 105.566L208.143 105.256ZM201.111 115.217L200.526 114.406L200.522 114.409L201.111 115.217ZM190.809 100.422L191.783 100.647L191.784 100.643L190.809 100.422ZM187.83 117.781C181.968 117.781 177.499 116.785 174.328 114.895L173.304 116.613C176.904 118.759 181.778 119.781 187.83 119.781V117.781ZM174.338 114.901C171.205 112.985 168.967 110.107 167.634 106.202L165.741 106.848C167.208 111.147 169.722 114.422 173.295 116.607L174.338 114.901ZM167.636 106.209C166.314 102.242 165.637 97.2466 165.637 91.1934H163.637C163.637 97.3797 164.327 102.605 165.739 106.842L167.636 106.209ZM165.637 91.1934V67.9512H163.637V91.1934H165.637ZM165.637 67.9512C165.637 62.0198 165.88 56.7995 166.363 52.2862L164.375 52.0732C163.882 56.6745 163.637 61.9685 163.637 67.9512H165.637ZM166.363 52.2932C166.874 47.8201 167.907 44.1201 169.432 41.1635L167.654 40.2467C165.989 43.475 164.906 47.4247 164.376 52.0661L166.363 52.2932ZM169.432 41.1635C170.928 38.2616 173.15 36.0682 176.123 34.5664L175.221 32.7812C171.879 34.4696 169.348 36.9637 167.654 40.2467L169.432 41.1635ZM176.123 34.5664C179.089 33.0681 183.131 32.2812 188.318 32.2812V30.2812C182.959 30.2812 178.57 31.0894 175.221 32.7812L176.123 34.5664ZM188.318 32.2812C191.812 32.2812 195.052 32.8944 198.049 34.112L198.802 32.2591C195.549 30.9376 192.051 30.2812 188.318 30.2812V32.2812ZM198.058 34.1154C201.026 35.2901 203.397 37.0556 205.2 39.409L206.788 38.1926C204.75 35.533 202.076 33.5549 198.794 32.2557L198.058 34.1154ZM205.204 39.414C206.963 41.6801 207.875 44.5607 207.875 48.127H209.875C209.875 44.2062 208.866 40.8693 206.784 38.1876L205.204 39.414ZM207.875 48.127V57.4043H209.875V48.127H207.875ZM208.875 56.4043H192.322V58.4043H208.875V56.4043ZM193.322 57.4043V55.6465H191.322V57.4043H193.322ZM193.322 55.6465C193.322 54.1762 193.239 52.7062 193.072 51.2367L191.085 51.4625C191.243 52.8576 191.322 54.2522 191.322 55.6465H193.322ZM193.074 51.2591C192.934 49.7159 192.542 48.3671 191.854 47.2578L190.154 48.3125C190.638 49.0912 190.962 50.1188 191.082 51.4401L193.074 51.2591ZM191.854 47.2578C191.037 45.9419 189.668 45.3691 188.025 45.3691V47.3691C189.182 47.3691 189.799 47.7404 190.154 48.3125L191.854 47.2578ZM188.025 45.3691C185.94 45.3691 184.213 45.9563 183.201 47.4087L184.842 48.5523C185.327 47.8562 186.27 47.3691 188.025 47.3691V45.3691ZM183.209 47.3968C182.288 48.6787 181.898 50.4336 181.898 52.5215H183.898C183.898 50.6381 184.257 49.3656 184.833 48.5641L183.209 47.3968ZM181.898 52.5215V69.7578H183.898V52.5215H181.898ZM183.781 70.2274C184.498 68.8798 185.576 67.7934 187.049 66.9682L186.072 65.2232C184.29 66.2209 182.926 67.5759 182.016 69.2882L183.781 70.2274ZM187.062 66.9607C188.504 66.1244 190.307 65.6797 192.518 65.6797V63.6797C190.04 63.6797 187.872 64.179 186.059 65.2307L187.062 66.9607ZM192.518 65.6797C197.155 65.6797 200.553 66.6195 202.852 68.3581L204.058 66.763C201.279 64.6604 197.386 63.6797 192.518 63.6797V65.6797ZM202.863 68.3666C205.211 70.0899 206.877 72.7027 207.809 76.307L209.745 75.8063C208.725 71.8585 206.843 68.8072 204.047 66.7545L202.863 68.3666ZM207.809 76.307C208.757 79.9736 209.242 84.6028 209.242 90.2168H211.242C211.242 84.5027 210.75 79.6918 209.745 75.8063L207.809 76.307ZM209.242 90.2168C209.242 95.8676 208.552 100.772 207.192 104.946L209.093 105.566C210.533 101.146 211.242 96.0244 211.242 90.2168H209.242ZM207.192 104.944C205.851 109.03 203.624 112.167 200.526 114.406L201.697 116.027C205.174 113.514 207.635 110.01 209.093 105.568L207.192 104.944ZM200.522 114.409C197.493 116.62 193.298 117.781 187.83 117.781V119.781C193.561 119.781 198.219 118.566 201.701 116.024L200.522 114.409ZM187.195 103.961C188.336 103.961 189.365 103.722 190.187 103.144C191.027 102.555 191.543 101.688 191.783 100.647L189.834 100.197C189.684 100.849 189.402 101.251 189.037 101.508C188.656 101.776 188.073 101.961 187.195 101.961V103.961ZM191.784 100.643C192.197 98.8183 192.395 96.5401 192.395 93.8301H190.395C190.395 96.4586 190.201 98.5749 189.833 100.201L191.784 100.643ZM192.395 93.8301V86.8965H190.395V93.8301H192.395ZM192.395 86.8965C192.395 84.4918 192.062 82.5279 191.277 81.1328C190.445 79.6538 189.128 78.8652 187.439 78.8652V80.8652C188.388 80.8652 189.048 81.2485 189.534 82.1133C190.068 83.062 190.395 84.6137 190.395 86.8965H192.395ZM187.439 78.8652C185.679 78.8652 184.215 79.4726 183.231 80.7942C182.289 82.0604 181.898 83.8393 181.898 85.9688H183.898C183.898 84.0292 184.264 82.7564 184.836 81.988C185.366 81.2751 186.173 80.8652 187.439 80.8652V78.8652ZM181.898 85.9688V96.6133H183.898V85.9688H181.898ZM181.898 96.6133C181.898 98.8107 182.265 100.635 183.145 101.935C184.072 103.304 185.478 103.961 187.195 103.961V101.961C186.048 101.961 185.306 101.56 184.801 100.813C184.248 99.9975 183.898 98.6477 183.898 96.6133H181.898Z" fill="black" fill-opacity="0.1" mask="url(#path-2-outside-1_371_5)"/>
</svg>
